# xmcd CD database file
#
# Track frame offsets:
#	150
#	11730
#	23702
#	35655
#	46994
#	61584
#	77358
#	88892
#	99381
#	110188
#	119131
#	132708
#	148925
#	162307
#	172625
#	182537
#	201080
#	213456
#	229890
#	242117
#
# Disc length: 3442 seconds
#
# Revision: 0
# Processed by: cddbd v1.4PL0 Copyright (c) Steve Scherf et al.
# Submitted via: CDex 1.50beta8
#
DISCID=1a0d7014
DTITLE=Diverse - Country Love Songs CD 2
DYEAR=1900
DGENRE=Country
TTITLE0=Bobby Bare - Footprints In The Sand Of Time
TTITLE1=Billy Grammer - Papa And Mama
TTITLE2=Dave Dudley - The Most Beautiful Girl
TTITLE3=Ferlin Huskey - My Home Town
TTITLE4=Jonny Hill - Detroit City
TTITLE5=Karen O'Donnell - I Know What It's All About Now, Mama
TTITLE6=Dave Dudley - Sentimental Journey
TTITLE7=Linda Manning - Bonjour Tristesse
TTITLE8=Bobby Bare - Just In Case A Night Like This
TTITLE9=Jonny Hill - Ring Of Fire
TTITLE10=Fredy Quinn - Green,Green Grass Of Home
TTITLE11=Rick Pilgreen - If I Had A Chance
TTITLE12=Bobby Bare - Mr. Jones, Your Daughter Cried All Night
TTITLE13=Dave Dudley - The Night You Broke The News
TTITLE14=Ronnie Rogers - The Fool On The Stool
TTITLE15=Freddy Quinn - Yesterday's Memories
TTITLE16=George Kent - Hello I'm A Jukebox
TTITLE17=Tom Stewart - The Best I Can Do
TTITLE18=Ronnie Rogers - It's Good To Know She's There
TTITLE19=Tom Stewart - At The End Of The Day
EXTD=
EXTT0=
EXTT1=
EXTT2=
EXTT3=
EXTT4=
EXTT5=
EXTT6=
EXTT7=
EXTT8=
EXTT9=
EXTT10=
EXTT11=
EXTT12=
EXTT13=
EXTT14=
EXTT15=
EXTT16=
EXTT17=
EXTT18=
EXTT19=
PLAYORDER=
